<svg xmlns="http://www.w3.org/2000/svg" viewBox="-16 -16 892 152" width="892" height="152" role="img" aria-label="Simulated day timeline"><style>
svg{--panel:#ffffff;--panel-2:#ecebfb;--line:rgba(27,30,75,.14);--text:#15173d;--muted:#5a5c8f;--lavender:#5b5ce0;--lav-soft:rgba(91,92,224,.14);--sun:#b07a10;--sun-soft:rgba(214,158,40,.18);--coral:#c2553b;--coral-soft:rgba(194,85,59,.14);--mint:#1f8a6e;--mint-soft:rgba(31,138,110,.14)}
@media (prefers-color-scheme: dark){svg{--panel:#13163a;--panel-2:#1b1e4b;--line:rgba(255,255,255,.12);--text:#f4f4fa;--muted:#a9a9d6;--lavender:#8b8cf6;--lav-soft:rgba(139,140,246,.2);--sun:#f5c86b;--sun-soft:rgba(245,200,107,.2);--coral:#e8846b;--coral-soft:rgba(232,132,107,.2);--mint:#9be3cf;--mint-soft:rgba(155,227,207,.2)}}
text{font-family:ui-monospace,"SF Mono",Menlo,Consolas,"DejaVu Sans Mono",monospace;fill:var(--muted);font-size:12px}
.t-strong{fill:var(--text);font-weight:600}
.t-disp{font-family:-apple-system,"Segoe UI","Helvetica Neue",Arial,sans-serif;fill:var(--text);font-size:15px;font-weight:700}
</style><rect x="-16" y="-16" width="892" height="152" rx="16" style="fill:var(--panel)"/><line x1="20" y1="60" x2="840" y2="60" style="stroke:var(--line);stroke-width:2"></line><rect x="20" y="44" width="29.285714285714285" height="32" rx="6" style="fill:var(--lav-soft);stroke:var(--lavender)"></rect><rect x="745.3095238095239" y="44" width="94.69047619047615" height="32" rx="6" style="fill:var(--lav-soft);stroke:var(--lavender)"></rect><rect x="149.83333333333334" y="44" width="43.928571428571416" height="32" rx="6" style="fill:var(--mint-soft);stroke:var(--mint)"></rect><rect x="135.1904761904762" y="80" width="29.285714285714278" height="4" rx="2" style="fill:var(--sun)"></rect><rect x="297.23809523809524" y="44" width="43.928571428571445" height="32" rx="6" style="fill:var(--mint-soft);stroke:var(--mint)"></rect><rect x="282.5952380952381" y="80" width="29.285714285714334" height="4" rx="2" style="fill:var(--sun)"></rect><rect x="444.64285714285717" y="44" width="43.92857142857139" height="32" rx="6" style="fill:var(--mint-soft);stroke:var(--mint)"></rect><rect x="430" y="80" width="29.285714285714278" height="4" rx="2" style="fill:var(--sun)"></rect><rect x="594.9761904761905" y="44" width="43.928571428571445" height="32" rx="6" style="fill:var(--mint-soft);stroke:var(--mint)"></rect><rect x="580.3333333333334" y="80" width="29.28571428571422" height="4" rx="2" style="fill:var(--sun)"></rect><text x="99.55952380952381" y="34" text-anchor="middle" style="fill:var(--lavender)">103′</text><text x="245.5" y="34" text-anchor="middle" style="fill:var(--muted)">106′</text><text x="392.9047619047619" y="34" text-anchor="middle" style="fill:var(--muted)">106′</text><text x="541.7738095238095" y="34" text-anchor="middle" style="fill:var(--sun)">109′</text><text x="692.1071428571429" y="34" text-anchor="middle" style="fill:var(--sun)">109′</text><text x="745.3095238095239" y="100" text-anchor="middle" class="t-strong">bed 18:53</text><text x="49.285714285714285" y="118" text-anchor="middle">07</text><text x="166.42857142857142" y="118" text-anchor="middle">09</text><text x="283.57142857142856" y="118" text-anchor="middle">11</text><text x="400.7142857142857" y="118" text-anchor="middle">13</text><text x="517.8571428571429" y="118" text-anchor="middle">15</text><text x="635" y="118" text-anchor="middle">17</text><text x="752.1428571428571" y="118" text-anchor="middle">19</text></svg>
